<svg height="180" version="1.1" width="680" xmlns="http://www.w3.org/2000/svg"><polygon fill="white" points="0,0 670,0 670,170 0,170" stroke="black"/><polygon fill="steelblue" points="10,10 110,10 110,80 10,80" stroke="black"/><polygon fill="white" points="120,10 220,10 220,80 120,80" stroke="black"/><polygon fill="dimgrey" points="230,10 330,10 330,80 230,80" stroke="black"/><polygon fill="dimgrey" points="340,10 440,10 440,80 340,80" stroke="black"/><polygon fill="white" points="450,10 550,10 550,80 450,80" stroke="black"/><polygon fill="white" points="560,10 660,10 660,80 560,80" stroke="black"/><polygon fill="steelblue" points="10,90 110,90 110,160 10,160" stroke="black"/><polygon fill="white" points="120,90 220,90 220,160 120,160" stroke="black"/><polygon fill="dimgrey" points="230,90 330,90 330,160 230,160" stroke="black"/><polygon fill="white" points="340,90 440,90 440,160 340,160" stroke="black"/><polygon fill="white" points="450,90 550,90 550,160 450,160" stroke="black"/><polygon fill="white" points="560,90 660,90 660,160 560,160" stroke="black"/><text font-size="25" x="335" y="46"/><text font-size="25" x="31" y="56">Cal</text><text font-size="25" x="138" y="56">News</text><text font-size="25" x="251" y="56">PPT</text><text font-size="25" x="355" y="56">Excel</text><text font-size="25" x="465" y="56">Tasks</text><text font-size="25" x="575" y="56">Sites</text><text font-size="25" x="31" y="136">Ppl</text><text font-size="25" x="138" y="136">Mail</text><text font-size="25" x="248" y="136">Word</text><text font-size="25" x="355" y="136">Drive</text><text font-size="25" x="465" y="136">Admin</text><text font-size="25" x="575" y="136">Notes</text></svg>